<svg width="25" height="24" viewBox="0 0 25 24" fill="none" xmlns="http://www.w3.org/2000/svg">
<path d="M24.0501 11.9041C24.0501 5.53701 18.8898 0.376709 12.5227 0.376709C6.15567 0.376709 0.995361 5.53701 0.995361 11.9041C0.995361 18.2712 6.15567 23.4315 12.5227 23.4315C12.5903 23.4315 12.6578 23.4315 12.7254 23.427V14.4572H10.2488V11.5709H12.7254V9.44552C12.7254 6.98244 14.2293 5.64058 16.4267 5.64058C17.4804 5.64058 18.3855 5.71713 18.6467 5.75315V8.3288H17.1337C15.9404 8.3288 15.7063 8.89616 15.7063 9.7292V11.5664H18.5656L18.1919 14.4527H15.7063V22.9857C20.5244 21.6033 24.0501 17.168 24.0501 11.9041Z" fill="white"/>
</svg>
