<svg width="15" height="15" viewBox="0 0 15 15" fill="none" xmlns="http://www.w3.org/2000/svg">
<path fill-rule="evenodd" clip-rule="evenodd" d="M2.7956 0.778478C2.3465 0.329375 1.61836 0.329375 1.16926 0.778478C0.720153 1.22758 0.720152 1.95572 1.16925 2.40482L6.10034 7.33591L1.1694 12.2669C0.720296 12.716 0.720296 13.4441 1.1694 13.8932C1.6185 14.3423 2.34664 14.3423 2.79574 13.8932L7.72669 8.96225L12.6575 13.8931C13.1066 14.3422 13.8348 14.3422 14.2839 13.8931C14.733 13.444 14.733 12.7158 14.2839 12.2667L9.35303 7.33591L14.284 2.40494C14.7331 1.95584 14.7331 1.2277 14.284 0.778597C13.8349 0.329494 13.1068 0.329492 12.6577 0.778595L7.72669 5.70956L2.7956 0.778478Z" fill="#37383C"/>
</svg>
