<svg width="69" height="8" viewBox="0 0 69 8" fill="none" xmlns="http://www.w3.org/2000/svg">
<path d="M13.3889 0.835693L11.3289 6.34569L9.12892 0.835693L6.91892 0.835693L4.72892 6.33569L2.65892 0.835693L0.718916 0.835693L3.47892 7.83569L5.95892 7.83569L8.02892 2.56569L10.0889 7.83569H12.5789L15.3389 0.835693L13.3889 0.835693ZM19.7134 7.93569C22.7834 7.93569 24.1134 6.64569 24.1134 4.32569C24.1134 2.01569 22.7834 0.735693 19.7134 0.735693C16.6334 0.735693 15.3134 2.00569 15.3134 4.32569C15.3134 6.65569 16.6334 7.93569 19.7134 7.93569ZM19.7134 6.42569C17.8434 6.42569 17.1134 5.76569 17.1134 4.32569C17.1134 2.89569 17.8334 2.24569 19.7134 2.24569C21.5934 2.24569 22.3134 2.90569 22.3134 4.32569C22.3134 5.75569 21.5834 6.42569 19.7134 6.42569ZM29.2689 7.93569C32.3389 7.93569 33.6689 6.64569 33.6689 4.32569C33.6689 2.01569 32.3389 0.735693 29.2689 0.735693C26.1889 0.735693 24.8689 2.00569 24.8689 4.32569C24.8689 6.65569 26.1889 7.93569 29.2689 7.93569ZM29.2689 6.42569C27.3989 6.42569 26.6689 5.76569 26.6689 4.32569C26.6689 2.89569 27.3889 2.24569 29.2689 2.24569C31.1489 2.24569 31.8689 2.90569 31.8689 4.32569C31.8689 5.75569 31.1389 6.42569 29.2689 6.42569ZM39.6044 0.835693L34.5244 0.835693V7.83569L39.6044 7.83569C41.4144 7.83569 43.0044 6.71569 43.0044 4.33569C43.0044 1.95569 41.4144 0.835693 39.6044 0.835693ZM38.9244 6.32569H36.3244V2.34569L38.9244 2.34569C40.2844 2.34569 41.2044 2.63569 41.2044 4.33569C41.2044 6.03569 40.2844 6.32569 38.9244 6.32569ZM51.2552 2.26569V0.835693L43.8552 0.835693V7.83569L51.2552 7.83569V6.40569L45.6552 6.40569V4.98569L51.2552 4.98569V3.68569L45.6552 3.68569V2.26569L51.2552 2.26569ZM53.9119 6.32569V0.835693L52.1119 0.835693V7.83569H59.3119V6.32569L53.9119 6.32569ZM64.1705 7.93569C67.2405 7.93569 68.5705 6.64569 68.5705 4.32569C68.5705 2.01569 67.2405 0.735693 64.1705 0.735693C61.0905 0.735693 59.7705 2.00569 59.7705 4.32569C59.7705 6.65569 61.0905 7.93569 64.1705 7.93569ZM64.1705 6.42569C62.3005 6.42569 61.5705 5.76569 61.5705 4.32569C61.5705 2.89569 62.2905 2.24569 64.1705 2.24569C66.0505 2.24569 66.7705 2.90569 66.7705 4.32569C66.7705 5.75569 66.0405 6.42569 64.1705 6.42569Z" fill="#353334"/>
</svg>
